# xmcd
#
# Track frame offsets:
#	150
#	16058
#	34459
#	57159
#	73147
#	92023
#	114077
#	131810
#	148974
#	153133
#	169047
#	190499
#	206302
#	223778
#
# Disc length: 3251 seconds
#
# Revision: 0
# Processed by: cddbd v1.5.1PL2 Copyright (c) Steve Scherf et al.
# Submitted via: EasyCDDAExtractor 9.0.0.1
#
DISCID=c90cb10e
DTITLE=Jon Randall - Walking Among The Living
DYEAR=2005
DGENRE=Country
TTITLE0=Baby Won't You Come Home
TTITLE1=In The Country
TTITLE2=North Carolina Moon
TTITLE3=Somebody Else
TTITLE4=Long Way Down
TTITLE5=Whiskey Lullaby
TTITLE6=Austin
TTITLE7=I Shouldn't Do This
TTITLE8=Reprise For Somebody Else
TTITLE9=Coming Back For More
TTITLE10=Lonely For A While
TTITLE11=Walking Among The Living
TTITLE12=No Southern Comfort
TTITLE13=My Life
EXTD=
EXTT0=
EXTT1=
EXTT2=
EXTT3=
EXTT4=
EXTT5=
EXTT6=
EXTT7=
EXTT8=
EXTT9=
EXTT10=
EXTT11=
EXTT12=
EXTT13=
PLAYORDER=
